<?xml version="1.0" encoding="utf-8"?>
<!-- Generator: Adobe Illustrator 18.0.0, SVG Export Plug-In . SVG Version: 6.00 Build 0)  -->
<!DOCTYPE svg PUBLIC "-//W3C//DTD SVG 1.1//EN" "http://www.w3.org/Graphics/SVG/1.1/DTD/svg11.dtd">
<svg version="1.1" xmlns="http://www.w3.org/2000/svg" xmlns:xlink="http://www.w3.org/1999/xlink" x="0px" y="0px"
	 viewBox="0 0 40 40" enable-background="new 0 0 40 40" xml:space="preserve">
<g id="Outdoors">
	<g id="TNT_5_">
	</g>
	<g id="Bicycle_14_">
		<g>
			<g id="Bicycle">
				<g>
					<path fill-rule="evenodd" clip-rule="evenodd" fill="#211F1F" d="M8.5,17C4.4,17,1,20.4,1,24.5C1,28.6,4.4,32,8.5,32
						c4.1,0,7.5-3.4,7.5-7.5C16,20.4,12.6,17,8.5,17z M8.5,30c-3,0-5.5-2.5-5.5-5.5c0-3,2.5-5.5,5.5-5.5c3,0,5.5,2.5,5.5,5.5
						C14,27.5,11.5,30,8.5,30z"/>
				</g>
			</g>
			<g id="Bicycle_1_">
				<g>
					<path fill-rule="evenodd" clip-rule="evenodd" fill="#211F1F" d="M31.5,17c-4.1,0-7.5,3.4-7.5,7.5c0,4.1,3.4,7.5,7.5,7.5
						c4.1,0,7.5-3.4,7.5-7.5C39,20.4,35.6,17,31.5,17z M31.5,30c-3,0-5.5-2.5-5.5-5.5c0-3,2.5-5.5,5.5-5.5c3,0,5.5,2.5,5.5,5.5
						C37,27.5,34.5,30,31.5,30z"/>
				</g>
			</g>
			<g id="Bicycle_2_">
				<g>
					<path fill-rule="evenodd" clip-rule="evenodd" fill="#16A085" d="M32.6,23.8L26.5,9.9c-0.2-0.5-0.9-0.8-1.4-0.5
						c-0.5,0.2-0.8,0.9-0.5,1.4l0.6,1.2h-8.6l-1.1-3.4c-0.2-0.6-0.8-0.7-1.3-0.5c-0.6,0.2-0.9,0.8-0.7,1.3l1.1,3.9L7.5,24.3
						c-0.2,0.3-0.2,0.7-0.1,1c0.2,0.3,0.5,0.6,0.9,0.6l5,0.3l2.2,0.2l1.8,0.1l4.2-2.3l5.4-8.2l3.8,8.6c0.2,0.4,0.6,0.6,1,0.6
						c0.1,0,0.3,0,0.4-0.1C32.6,25,32.8,24.4,32.6,23.8z M17.3,24.5L10.2,24l2.1-3.2l1.2-1.8l1.9-3l2.3,8
						C17.5,24.1,17.4,24.3,17.3,24.5z M19.7,22.9C19.7,22.9,19.7,22.9,19.7,22.9L17.1,14h8.4L19.7,22.9z"/>
				</g>
			</g>
			<g id="Bicycle_3_">
				<g>
					<path fill-rule="evenodd" clip-rule="evenodd" fill="#ECF0F1" d="M5,11v2h5v-2H5z M8,8H3v2h5V8z"/>
				</g>
			</g>
			<g id="Bicycle_4_">
				<g>
					<circle fill-rule="evenodd" clip-rule="evenodd" fill="#201F1F" cx="19.5" cy="25.5" r="2.5"/>
				</g>
			</g>
			<g id="Bicycle_5_">
				<g>
					<path fill-rule="evenodd" clip-rule="evenodd" fill="#1ABC9C" d="M30.7,9H25C24.4,9,24,9.5,24,10.1c0,0.6,0.5,1.1,1.1,1.1h5.7
						c0.3,0,0.6,0.2,0.6,0.5c0,0.3-0.3,0.5-0.6,0.5h-0.7c-0.6,0-1.1,0.5-1.1,1.1c0,0.6,0.5,1.1,1.1,1.1h0.7c1.5,0,2.7-1.2,2.7-2.6
						C33.4,10.2,32.2,9,30.7,9z"/>
				</g>
			</g>
			<g id="Bicycle_6_">
				<g>
					<path fill-rule="evenodd" clip-rule="evenodd" fill="#A46D4E" d="M16.8,8h-5.1c-0.6,0-1.1,0.5-1.1,1.1c0,0.6,0.5,1.1,1.1,1.1
						h5.1c0.6,0,1.1-0.5,1.1-1.1C17.9,8.5,17.4,8,16.8,8z"/>
				</g>
			</g>
		</g>
	</g>
	<g id="Globe_3_">
	</g>
	<g id="Direction_1_">
	</g>
	<g id="Pin_4_">
	</g>
	<g id="Location_2_">
	</g>
	<g id="Map_5_">
	</g>
	<g id="Cloud_2_">
	</g>
	<g id="Wind_3_">
	</g>
	<g id="Cloudy">
	</g>
	<g id="Partly_Cloudy_2_">
	</g>
	<g id="Storm">
	</g>
	<g id="Snow_3_">
	</g>
	<g id="Rain_3_">
	</g>
	<g id="Radar_8_">
	</g>
	<g id="Helmet_04">
	</g>
	<g id="Helmet_03">
	</g>
	<g id="Helmet_02">
	</g>
	<g id="Helmet_01">
	</g>
	<g id="Rocket_6_">
	</g>
	<g id="Compass_3_">
	</g>
	<g id="Hatchet_5_">
	</g>
	<g id="Wigwam_6_">
	</g>
	<g id="Lifesaver">
	</g>
	<g id="Umbrella_4_">
	</g>
	<g id="Drops_4_">
	</g>
	<g id="Snowflake_10_">
	</g>
	<g id="Tree_Alt_3_">
	</g>
	<g id="Tree_3_">
	</g>
	<g id="Current_2_">
	</g>
	<g id="Electricity_2_">
	</g>
	<g id="Fire">
	</g>
	<g id="Moon_2_">
	</g>
	<g id="Sun_4_">
	</g>
</g>
<g id="Lockup">
</g>
</svg>
