<?xml version="1.0" encoding="utf-8"?>
<!-- Generator: Adobe Illustrator 18.0.0, SVG Export Plug-In . SVG Version: 6.00 Build 0)  -->
<!DOCTYPE svg PUBLIC "-//W3C//DTD SVG 1.1//EN" "http://www.w3.org/Graphics/SVG/1.1/DTD/svg11.dtd">
<svg version="1.1" xmlns="http://www.w3.org/2000/svg" xmlns:xlink="http://www.w3.org/1999/xlink" x="0px" y="0px"
	 viewBox="0 0 40 40" enable-background="new 0 0 40 40" xml:space="preserve">
<g id="Outdoors">
	<g id="TNT_5_">
	</g>
	<g id="Bicycle_14_">
	</g>
	<g id="Globe_3_">
	</g>
	<g id="Direction_1_">
	</g>
	<g id="Pin_4_">
	</g>
	<g id="Location_2_">
	</g>
	<g id="Map_5_">
	</g>
	<g id="Cloud_2_">
	</g>
	<g id="Wind_3_">
	</g>
	<g id="Cloudy">
	</g>
	<g id="Partly_Cloudy_2_">
	</g>
	<g id="Storm">
	</g>
	<g id="Snow_3_">
	</g>
	<g id="Rain_3_">
	</g>
	<g id="Radar_8_">
	</g>
	<g id="Helmet_04">
	</g>
	<g id="Helmet_03">
	</g>
	<g id="Helmet_02">
	</g>
	<g id="Helmet_01">
	</g>
	<g id="Rocket_6_">
	</g>
	<g id="Compass_3_">
	</g>
	<g id="Hatchet_5_">
	</g>
	<g id="Wigwam_6_">
	</g>
	<g id="Lifesaver">
	</g>
	<g id="Umbrella_4_">
	</g>
	<g id="Drops_4_">
		<g>
			<g id="Drops">
				<g>
					<path fill-rule="evenodd" clip-rule="evenodd" fill="#3498D8" d="M16.7,11C13.7,18.1,9,20.1,9,25.6c0,4.4,3.4,7.9,7.7,7.9
						c4.2,0,7.7-3.5,7.7-7.9C24.4,20.1,19.6,18.1,16.7,11z"/>
				</g>
			</g>
			<g>
				<path fill="#2980B9" d="M16.7,31.5c-3.9,0-7.2-3-7.6-7c0,0.3-0.1,0.7-0.1,1c0,4.4,3.4,7.9,7.7,7.9c4.2,0,7.7-3.5,7.7-7.9
					c0-0.4,0-0.7-0.1-1C23.8,28.5,20.6,31.5,16.7,31.5z"/>
			</g>
			<g id="Drops_1_">
				<g>
					<path fill-rule="evenodd" clip-rule="evenodd" fill="#3498D8" d="M26.8,6.5c-1.6,3.8-4.2,4.9-4.2,7.9c0,2.4,1.9,4.3,4.2,4.3
						c2.3,0,4.2-1.9,4.2-4.3C31,11.5,28.4,10.4,26.8,6.5z"/>
				</g>
			</g>
			<g>
				<path fill="#2980B9" d="M26.8,17.7c-2.2,0-3.9-1.7-4.1-3.9c0,0.2,0,0.4,0,0.6c0,2.4,1.9,4.3,4.2,4.3c2.3,0,4.2-1.9,4.2-4.3
					c0-0.2,0-0.4,0-0.6C30.8,16,29,17.7,26.8,17.7z"/>
			</g>
		</g>
	</g>
	<g id="Snowflake_10_">
	</g>
	<g id="Tree_Alt_3_">
	</g>
	<g id="Tree_3_">
	</g>
	<g id="Current_2_">
	</g>
	<g id="Electricity_2_">
	</g>
	<g id="Fire">
	</g>
	<g id="Moon_2_">
	</g>
	<g id="Sun_4_">
	</g>
</g>
<g id="Lockup">
</g>
</svg>
